<?xml version="1.0" encoding="UTF-8" standalone="no"?>
<!-- Created with Inkscape (http://www.inkscape.org/) -->

<svg
   width="51.072693mm"
   height="51.073856mm"
   viewBox="0 0 51.072691 51.073855"
   version="1.1"
   id="svg5"
   inkscape:export-filename="/home/mustahar/Documents/hoshimi/fpbw1.png"
   inkscape:export-xdpi="93"
   inkscape:export-ydpi="93"
   inkscape:version="1.4.2 (ebf0e940d0, 2025-05-08)"
   sodipodi:docname="hoshimi (copy 1).svg"
   xmlns:inkscape="http://www.inkscape.org/namespaces/inkscape"
   xmlns:sodipodi="http://sodipodi.sourceforge.net/DTD/sodipodi-0.dtd"
   xmlns="http://www.w3.org/2000/svg"
   xmlns:svg="http://www.w3.org/2000/svg">
  <sodipodi:namedview
     id="namedview7"
     pagecolor="#b1b1b1"
     bordercolor="#666666"
     borderopacity="1.0"
     inkscape:pageshadow="2"
     inkscape:pageopacity="0"
     inkscape:pagecheckerboard="true"
     inkscape:document-units="mm"
     showgrid="false"
     inkscape:snap-page="true"
     inkscape:snap-bbox="true"
     inkscape:bbox-paths="true"
     inkscape:bbox-nodes="true"
     inkscape:snap-bbox-edge-midpoints="true"
     inkscape:snap-bbox-midpoints="true"
     inkscape:object-paths="true"
     inkscape:snap-intersection-paths="true"
     inkscape:object-nodes="true"
     inkscape:snap-smooth-nodes="true"
     inkscape:snap-midpoints="true"
     inkscape:snap-object-midpoints="true"
     inkscape:snap-center="true"
     inkscape:snap-text-baseline="true"
     inkscape:snap-global="true"
     showguides="false"
     inkscape:guide-bbox="true"
     inkscape:zoom="1.5713493"
     inkscape:cx="129.18833"
     inkscape:cy="71.276321"
     inkscape:window-width="1366"
     inkscape:window-height="711"
     inkscape:window-x="0"
     inkscape:window-y="0"
     inkscape:window-maximized="1"
     inkscape:current-layer="layer1"
     showborder="false"
     inkscape:showpageshadow="2"
     inkscape:deskcolor="#d1d1d1">
    <sodipodi:guide
       position="-236.50141,436.14404"
       orientation="0,637.78962"
       id="guide46531"
       inkscape:locked="false" />
    <sodipodi:guide
       position="-67.752911,436.14404"
       orientation="637.78962,0"
       id="guide46533"
       inkscape:locked="false" />
    <sodipodi:guide
       position="-67.752911,267.39555"
       orientation="0,-637.78962"
       id="guide46535"
       inkscape:locked="false" />
    <sodipodi:guide
       position="-67.504421,284.77639"
       orientation="-637.78962,0"
       id="guide46537"
       inkscape:locked="false" />
    <sodipodi:guide
       position="-236.50141,436.14404"
       orientation="0,637.78962"
       id="guide955"
       inkscape:locked="false" />
    <sodipodi:guide
       position="-67.752911,436.14404"
       orientation="637.78962,0"
       id="guide957"
       inkscape:locked="false" />
    <sodipodi:guide
       position="-67.752911,267.39555"
       orientation="0,-637.78962"
       id="guide959"
       inkscape:locked="false" />
    <sodipodi:guide
       position="-236.50141,267.39555"
       orientation="-637.78962,0"
       id="guide961"
       inkscape:locked="false" />
    <sodipodi:guide
       position="269.99256,414.51192"
       orientation="1,0"
       id="guide1225"
       inkscape:locked="false" />
    <sodipodi:guide
       position="101.24407,395.80305"
       orientation="1,0"
       id="guide1227"
       inkscape:locked="false" />
  </sodipodi:namedview>
  <defs
     id="defs2">
    <clipPath
       clipPathUnits="userSpaceOnUse"
       id="clipPath26061">
      <path
         id="path26063"
         style="font-size:3.72173px;line-height:1.25;letter-spacing:1.39565px;fill:#89dde2;stroke-width:0.0930434"
         d="m 504.90274,164.85919 -0.19741,0.0816 c 0.10419,0.14143 0.22715,0.35364 0.30901,0.51367 l 0.20103,-0.0894 c -0.0707,-0.1377 -0.21588,-0.37193 -0.31263,-0.50592 z m -25.92195,0.0667 c -0.5843,0.12653 -1.65608,0.21237 -2.54558,0.24959 0.0259,0.0596 0.0555,0.15594 0.0631,0.21549 l 0.49144,-0.0186 -0.21963,0.0822 c 0.10795,0.14143 0.21611,0.32738 0.26821,0.46509 h -0.8077 v 0.23822 h 1.19475 c -0.33869,0.30519 -0.84851,0.58411 -1.2914,0.72554 0.0596,0.0521 0.13734,0.15264 0.1783,0.21963 0.12653,-0.0484 0.2608,-0.10768 0.39481,-0.17467 v 1.3808 h 0.26768 v -0.13023 h 1.82367 v 0.11524 h 0.27903 v -1.35496 c 0.11538,0.0521 0.22736,0.0972 0.33901,0.13436 0.0447,-0.0707 0.12639,-0.17879 0.18965,-0.23461 -0.45778,-0.13027 -0.97896,-0.38707 -1.32138,-0.6811 h 1.22113 v -0.23822 h -0.85267 c 0.11165,-0.14515 0.2382,-0.3498 0.34986,-0.53589 l -0.30128,-0.0858 c -0.0707,0.17492 -0.20482,0.42453 -0.30904,0.58084 l 0.11526,0.0408 h -0.51729 v -0.61754 c 0.43918,-0.0447 0.85238,-0.10096 1.17615,-0.16794 z m 25.51266,0.0822 -0.20103,0.0817 c 0.10049,0.14143 0.22683,0.36841 0.30128,0.51728 l 0.20463,-0.0894 c -0.0782,-0.14887 -0.21185,-0.37927 -0.30488,-0.50953 z m 2.90267,0.004 v 2.12493 h 0.50281 c -0.0744,0.48011 -0.27554,0.77025 -1.04592,0.92656 0.0596,0.0596 0.13784,0.17527 0.16018,0.24598 0.85227,-0.19725 1.09407,-0.57334 1.1834,-1.17254 h 0.61029 v 0.74828 c 0,0.30518 0.0929,0.39067 0.4501,0.39067 h 0.60307 c 0.31634,0 0.39439,-0.13411 0.42788,-0.67748 -0.0781,-0.0186 -0.1973,-0.0668 -0.25683,-0.11524 -0.0185,0.46151 -0.0406,0.52865 -0.19328,0.52865 h -0.55448 c -0.16002,0 -0.19378,-0.0223 -0.19378,-0.1266 v -0.74828 h 0.66249 v -2.12493 z m -10.29396,0.0222 v 1.32137 h 2.4784 v -1.32137 z m -14.11645,0.007 v 1.32498 c 0,0.5806 -0.0634,1.29189 -0.69606,1.77199 0.0596,0.0409 0.16369,0.13372 0.20462,0.19327 0.42799,-0.32751 0.61773,-0.77771 0.70332,-1.2206 h 1.10175 v 0.82631 c 0,0.067 -0.0259,0.0889 -0.093,0.0889 -0.0633,0.004 -0.2981,0.007 -0.54001,-0.004 0.0409,0.0781 0.0896,0.19728 0.10075,0.27543 0.3238,0 0.5247,-0.007 0.64752,-0.0522 0.11911,-0.0447 0.1602,-0.13411 0.1602,-0.30903 v -2.89543 z m 35.77458,0.0114 c 0.007,0.0521 0.0151,0.15997 0.0151,0.22324 v 0.26458 h -0.17156 c -0.24937,0 -0.71048,-0.0375 -0.95239,-0.0822 l 0.004,0.27543 c 0.23448,0.026 0.69239,0.0631 0.95293,0.0631 h 0.1638 v 0.4656 0.0558 h -0.201 c -0.24564,0 -0.66998,-0.0261 -0.93795,-0.0708 h -0.003 l 0.004,0.27905 c 0.26797,0.0298 0.67709,0.0522 0.93017,0.0522 h 0.2124 l 0.0146,0.50591 c -0.10052,-0.0149 -0.20474,-0.0222 -0.31266,-0.0222 -0.53592,0 -0.85937,0.2308 -0.85937,0.56947 0,0.35729 0.29038,0.54726 0.82629,0.54726 0.48382,0 0.65474,-0.26038 0.65474,-0.5209 l -0.007,-0.23099 c 0.37219,0.13398 0.68061,0.36126 0.90022,0.56224 l 0.17155,-0.26459 c -0.21214,-0.17492 -0.59177,-0.44634 -1.08675,-0.58032 l -0.0265,-0.5731 c 0.35357,-0.0112 0.68109,-0.0411 1.03095,-0.0858 l 0.004,-0.27905 c -0.3387,0.0521 -0.67718,0.0854 -1.03818,0.10025 v -0.0444 -0.47646 c 0.35727,-0.0186 0.71057,-0.0523 1.00457,-0.0858 l 0.004,-0.27182 c -0.33497,0.0521 -0.67379,0.0859 -1.00873,0.10077 l 0.004,-0.22686 c 0.004,-0.10793 0.0111,-0.1826 0.0222,-0.2496 z m 5.29526,0.007 c 0.004,0.0298 0.0185,0.13784 0.0222,0.23461 l 0.007,0.24547 c -0.55454,0.007 -1.25449,0.0298 -1.66761,0.0372 v 5.3e-4 l 0.007,0.28629 c 0.46522,-0.0335 1.09776,-0.0593 1.66346,-0.063 l 0.004,0.37568 c -0.0744,-0.026 -0.15603,-0.0408 -0.24908,-0.0408 -0.35357,0 -0.65524,0.27905 -0.65524,0.6475 0,0.40567 0.29765,0.62167 0.61028,0.62167 0.12656,0 0.23469,-0.0338 0.32401,-0.10077 -0.14885,0.33868 -0.49151,0.54723 -0.9865,0.65888 l 0.24961,0.24546 c 0.86715,-0.26052 1.1126,-0.81842 1.1126,-1.32085 0,-0.18609 -0.0407,-0.34992 -0.11888,-0.47646 l -0.007,-0.61391 h 0.0522 c 0.54335,0 0.88194,0.007 1.09035,0.0186 l 0.004,-0.27544 c -0.17864,0 -0.63632,-0.004 -1.09037,-0.004 h -0.0558 l 0.004,-0.24185 c 0.004,-0.0484 0.0111,-0.19367 0.0185,-0.23461 z m 4.40595,0.008 c 0,0.25308 -0.0376,0.54335 -0.0972,0.81132 -0.22331,0.0186 -0.44255,0.0371 -0.56534,0.0408 -0.11911,0.004 -0.21587,0.007 -0.33126,0 l 0.0294,0.32401 c 0.0968,-0.0149 0.24926,-0.0338 0.33488,-0.045 l 0.47284,-0.0522 c -0.12655,0.49872 -0.40537,1.34737 -0.78497,1.85725 l 0.30488,0.11937 c 0.39079,-0.62897 0.64419,-1.47015 0.78187,-2.00608 0.16376,-0.0149 0.31221,-0.0264 0.40154,-0.0264 0.23447,0 0.39481,0.0638 0.39481,0.40618 0,0.40194 -0.0597,0.88535 -0.17881,1.13843 -0.0744,0.16003 -0.18632,0.19017 -0.32401,0.19017 -0.10422,0 -0.30104,-0.026 -0.45733,-0.0744 l 0.048,0.30851 c 0.11909,0.0298 0.29784,0.0558 0.43926,0.0558 0.24191,0 0.42452,-0.0633 0.54361,-0.31264 0.15632,-0.3089 0.21551,-0.90071 0.21551,-1.34359 0,-0.50243 -0.27133,-0.6289 -0.60254,-0.6289 -0.0893,0 -0.24574,0.0116 -0.42066,0.0264 l 0.0966,-0.53226 c 0.0148,-0.0707 0.0301,-0.15264 0.045,-0.21963 z m -15.47503,0.004 -0.0486,0.27182 c 0.45406,0.0819 1.10527,0.16753 1.47744,0.20102 l 0.0408,-0.27544 c -0.35356,-0.0223 -1.06402,-0.10808 -1.46968,-0.1974 z m -10.16063,0.0109 c 0,0.25308 -0.0407,0.54335 -0.0966,0.81132 -0.22704,0.0186 -0.44304,0.0376 -0.56586,0.0413 -0.11909,0.004 -0.21574,0.004 -0.33486,0 l 0.0336,0.31988 c 0.093,-0.0149 0.24927,-0.0332 0.33486,-0.0444 l 0.47284,-0.0486 c -0.12655,0.49871 -0.40588,1.34748 -0.78547,1.85363 l 0.30178,0.12248 c 0.39449,-0.62898 0.64725,-1.47337 0.78497,-2.00557 0.16004,-0.0149 0.30908,-0.0264 0.39841,-0.0264 0.2382,0 0.3943,0.0634 0.3943,0.40204 0,0.40195 -0.0556,0.88959 -0.17467,1.13895 -0.0744,0.16376 -0.18992,0.19327 -0.32764,0.19327 -0.10419,0 -0.29789,-0.0296 -0.45423,-0.078 l 0.0486,0.31264 c 0.11909,0.026 0.29411,0.0522 0.43927,0.0522 0.23817,0 0.42402,-0.0596 0.54311,-0.30903 0.15261,-0.3089 0.216,-0.90071 0.216,-1.34359 0,-0.50616 -0.27173,-0.63252 -0.60666,-0.63252 -0.0893,0 -0.24159,0.011 -0.41654,0.0258 l 0.0967,-0.52864 c 0.0111,-0.0744 0.0259,-0.15253 0.0408,-0.22325 z m -21.40747,0.0264 v 2.57194 h 0.26459 v -0.34985 h 0.95652 v -2.22209 z m 7.4476,0.093 c -0.0372,0.0112 -0.0894,0.0225 -0.201,0.03 -0.19725,0.0186 -1.08342,0.0486 -1.27694,0.0486 -0.0744,0 -0.17846,-0.004 -0.26408,-0.015 l 0.0114,0.30851 c 0.0781,-0.0112 0.16359,-0.0185 0.24545,-0.0222 0.19728,-0.0112 0.94171,-0.0448 1.13896,-0.0522 -0.18982,0.16748 -0.65509,0.55847 -0.8635,0.72967 -0.21587,0.18237 -0.69207,0.58047 -1.00097,0.83354 l 0.21185,0.21963 c 0.47268,-0.4801 0.80423,-0.74414 1.42576,-0.74414 0.48385,0 0.83355,0.27554 0.83355,0.64027 0,0.30518 -0.16735,0.52076 -0.46509,0.63614 -0.0447,-0.35357 -0.29443,-0.65888 -0.75964,-0.65888 -0.34613,0 -0.57309,0.22741 -0.57309,0.48421 0,0.3089 0.30879,0.52813 0.81494,0.52813 0.78899,0 1.28053,-0.38678 1.28053,-0.98598 0,-0.50243 -0.44312,-0.87489 -1.06092,-0.87489 -0.16749,0 -0.34608,0.0189 -0.51726,0.0786 0.29027,-0.24191 0.79679,-0.67403 0.98287,-0.81545 0.067,-0.0558 0.14126,-0.10406 0.20825,-0.15245 z m 8.50749,0.0558 h 1.92082 v 0.32763 h -1.92082 z m 10.29446,0.004 h 1.80145 v 0.38344 h -1.80145 z m -24.4109,0.0413 h 1.04232 v 0.64389 h -1.04232 z m -5.54178,0.0222 v 0.59531 h -0.55036 l 0.14107,-0.0594 c -0.0447,-0.1377 -0.17121,-0.34257 -0.29403,-0.49144 0.23448,-0.0112 0.46887,-0.0259 0.70332,-0.0444 z m 3.96772,0.0408 h 0.69609 v 0.71107 h -0.69609 z m 10.1415,0.0377 c 0.0222,0.0893 0.0265,0.24564 0.0265,0.33124 0,0.21586 0.004,0.66995 0.0408,0.99374 0.10046,0.96393 0.43912,1.31362 0.79271,1.31362 0.24935,0 0.47639,-0.21584 0.69969,-0.84853 l -0.2346,-0.26407 c -0.0968,0.37217 -0.27168,0.75913 -0.46149,0.75913 -0.26424,0 -0.44685,-0.41303 -0.50641,-1.03456 -0.0259,-0.3089 -0.0296,-0.64765 -0.0259,-0.88212 0,-0.0968 0.0151,-0.2719 0.03,-0.36122 v -5.3e-4 z m 38.2633,0.0961 -0.27183,0.12298 c 0.26427,0.30891 0.55457,0.96387 0.66249,1.34721 l 0.29043,-0.13746 c -0.12655,-0.34612 -0.45034,-1.03128 -0.68109,-1.33273 z m -35.9632,0.015 -0.2904,0.10077 c 0.35729,0.43544 0.58052,1.19808 0.64749,1.87172 l 0.29818,-0.12247 c -0.0558,-0.62897 -0.32403,-1.4183 -0.65527,-1.85002 z m 10.32394,0.0336 -0.2713,0.12299 c 0.26424,0.30518 0.55446,0.9525 0.66608,1.33584 l 0.28631,-0.13746 c -0.12282,-0.34612 -0.45035,-1.01991 -0.68109,-1.32137 z m -7.07504,0.24908 h 1.92082 v 0.33538 h -1.92082 z m 10.29446,0.0822 h 1.80145 v 0.38343 h -1.80145 z m 6.68436,0.0558 c -0.0335,0.0149 -0.11552,0.0334 -0.17881,0.0408 -0.27913,0.0335 -1.14644,0.0928 -1.35855,0.0966 -0.11912,0.004 -0.23067,2.6e-4 -0.31629,-0.007 l 0.0265,0.32762 c 0.0819,-0.0149 0.17846,-0.026 0.30126,-0.0372 0.22703,-0.0186 0.85217,-0.0708 1.1462,-0.0894 -0.36846,0.36845 -1.38076,1.38065 -1.52964,1.53324 -0.0744,0.0707 -0.14137,0.12649 -0.18603,0.16743 l 0.28266,0.1974 c 0.20844,-0.26796 0.6141,-0.69594 0.75552,-0.82992 0.0856,-0.0819 0.17123,-0.13384 0.27543,-0.13384 0.10049,0 0.18272,0.0666 0.22738,0.19688 0.0335,0.10793 0.0894,0.3276 0.1266,0.43925 0.0781,0.24563 0.26398,0.31626 0.56174,0.31626 0.20095,0 0.54337,-0.0298 0.69969,-0.0558 l 0.0185,-0.31264 c -0.17492,0.0447 -0.45768,0.0744 -0.70331,0.0744 -0.18982,0 -0.27935,-0.0596 -0.32401,-0.20102 -0.0372,-0.12282 -0.089,-0.30858 -0.12248,-0.41651 -0.0521,-0.15259 -0.13803,-0.25332 -0.28318,-0.2682 -0.0409,-0.007 -0.10801,-0.0109 -0.14521,-0.007 0.13769,-0.14142 0.55828,-0.53223 0.69969,-0.66249 0.0447,-0.0409 0.13391,-0.11905 0.20463,-0.16743 v -0.001 z m -36.36161,0.26045 c 0.24564,0.2568 0.58851,0.49522 0.94207,0.67386 h -2.1141 c 0.33497,-0.18237 0.65842,-0.41324 0.8966,-0.65888 v 0.5917 h 0.27543 z m 5.26635,0.004 h 1.04232 v 0.65888 h -1.06455 c 0.0185,-0.16748 0.0222,-0.33472 0.0222,-0.48731 z m -1.57406,0.13023 h 0.69609 v 0.74104 h -0.69609 z m 15.65743,0.03 c -0.14886,0.32751 -0.40942,0.65147 -0.68109,0.8599 0.067,0.0409 0.18201,0.12256 0.2341,0.17466 0.13026,-0.11165 0.26424,-0.25648 0.38706,-0.41651 h 0.91207 v 0.35346 h -1.0423 v 0.22686 h 1.0423 v 0.40567 h -1.47743 v 0.24546 h 3.2453 v -0.24546 h -1.47743 v -0.40567 h 1.08675 v -0.22686 h -1.08675 v -0.35346 h 1.24282 v -0.23823 h -1.24282 v -0.30179 h -0.29044 v 0.30179 h -0.74464 c 0.0633,-0.0968 0.11956,-0.2013 0.16793,-0.30179 z m 26.50225,0.0258 c 0.14888,0 0.2717,0.0707 0.33126,0.23823 0.0335,0.34985 -0.11176,0.52503 -0.32763,0.52503 -0.20841,0 -0.37931,-0.13771 -0.37931,-0.36845 0,-0.24191 0.18217,-0.39481 0.37568,-0.39481 z m -52.79263,0.0186 v 0.30541 h 3.40911 v -0.30541 z m 36.61791,0.0972 h 1.80145 v 0.38705 h -1.80145 z m -30.6932,0.59169 h 0.74827 v 0.3235 h -0.74827 z m 1.01595,0 h 0.80772 v 0.3235 h -0.80772 z m 40.4518,0.21549 c 0.12282,0 0.24585,0.0112 0.36121,0.0372 v 5.3e-4 l 0.004,0.24908 c 0,0.2568 -0.18216,0.32401 -0.39428,0.32401 -0.36846,0 -0.51729,-0.13059 -0.51729,-0.30179 0,-0.1712 0.19318,-0.30903 0.54674,-0.30903 z m -30.5444,0.0708 c 0.28287,0 0.46892,0.21241 0.49869,0.50643 -0.093,0.0149 -0.19336,0.0222 -0.30128,0.0222 -0.29028,0 -0.49506,-0.11178 -0.49506,-0.29042 0,-0.13026 0.13017,-0.23823 0.29765,-0.23823 z m -10.92335,0.23461 h 0.74827 v 0.34623 h -0.74827 z m 1.01595,0 h 0.80772 v 0.34623 h -0.80772 z" />
    </clipPath>
    <clipPath
       clipPathUnits="userSpaceOnUse"
       id="clipPath2107">
      <circle
         style="fill:#ff0000;fill-opacity:0.365918;stroke-width:21.5747"
         id="circle2109"
         cx="98.142616"
         cy="116.26585"
         r="84.374252" />
    </clipPath>
  </defs>
  <g
     inkscape:label="Layer 1"
     inkscape:groupmode="layer"
     id="layer1"
     transform="translate(-250.26978,-295.58767)">
    <path
       id="path9"
       style="baseline-shift:baseline;display:inline;overflow:visible;vector-effect:none;fill:#ffffff;enable-background:accumulate;stop-color:#000000"
       d="M 271.05456 295.58767 L 271.05456 297.96272 L 271.05456 309.65244 L 261.10943 299.70887 L 254.38891 306.42577 L 264.3361 316.37296 L 250.26978 316.37296 L 250.26978 325.87523 L 264.33766 325.87523 L 254.38891 335.82242 L 261.10943 342.54088 L 271.05456 332.59575 L 271.05456 346.66207 L 280.55682 346.66207 L 280.55682 332.59368 L 290.50402 342.54088 L 297.22247 335.82242 L 287.27527 325.87523 L 301.3416 325.87523 L 301.3416 316.37296 L 287.27527 316.37296 L 297.22454 306.42784 L 290.50402 299.70887 L 280.55682 309.65451 L 280.55682 295.58767 L 271.05456 295.58767 z M 272.72939 297.26199 L 278.88302 297.26199 L 278.88302 313.69664 L 290.5035 302.07616 L 294.85517 306.4268 L 283.23211 318.04831 L 299.6678 318.04831 L 299.6678 324.20091 L 283.23211 324.20091 L 294.85517 335.82242 L 290.5035 340.17306 L 278.88302 328.55258 L 278.88302 344.98724 L 272.72939 344.98724 L 272.72939 328.55258 L 261.10891 340.17306 L 256.75724 335.82242 L 268.3803 324.20091 L 251.9441 324.20091 L 251.9441 318.04831 L 268.37875 318.04831 L 256.75724 306.4268 L 261.10891 302.07616 L 272.72939 313.69664 L 272.72939 297.96324 L 272.72939 297.26199 z " />
    <path
       style="fill:#1a1a1a;fill-opacity:1;stroke:none;stroke-width:2.14916;stroke-miterlimit:4;stroke-dasharray:none;stroke-opacity:1"
       d="m 272.72944,297.26218 10e-6,0.70128 -10e-6,15.73306 -11.62043,-11.62042 -4.35193,4.35079 11.62155,11.62153 h -16.43435 v 6.15238 h 16.43581 l -11.62303,11.62153 4.35193,4.3508 11.62043,-11.62045 -1e-5,16.43435 h 6.1535 v -16.43435 l 11.62043,11.62045 4.35185,-4.3509 -11.62305,-11.62152 h 16.43582 l 1e-5,-6.15238 h -16.43583 l 11.62322,-11.62134 -4.35184,-4.35089 -11.62043,11.62043 V 297.2622 Z"
       id="path3" />
  </g>
</svg>
